<mxfile host="Electron" modified="2023-10-05T12:21:29.395Z" agent="Mozilla/5.0 (Windows NT 10.0; Win64; x64) AppleWebKit/537.36 (KHTML, like Gecko) draw.io/22.0.2 Chrome/114.0.5735.289 Electron/25.8.4 Safari/537.36" etag="5bgWL487szKTHCiWyiT3" version="22.0.2" type="device">
  <diagram name="Page-1" id="plBdEhP5Hm0ZhWRDxCT0">
    <mxGraphModel dx="414" dy="242" grid="1" gridSize="10" guides="1" tooltips="1" connect="1" arrows="1" fold="1" page="1" pageScale="1" pageWidth="827" pageHeight="1169" math="0" shadow="0">
      <root>
        <mxCell id="0" />
        <mxCell id="1" parent="0" />
        <mxCell id="eqcoZZI387RmmcKd29dG-24" value="" style="ellipse;whiteSpace=wrap;html=1;aspect=fixed;strokeColor=none;fillColor=#F9D230;" parent="1" vertex="1">
          <mxGeometry x="250" y="206.25" width="57.5" height="57.5" as="geometry" />
        </mxCell>
        <mxCell id="eqcoZZI387RmmcKd29dG-17" value="" style="rounded=0;whiteSpace=wrap;html=1;fillColor=#91ADC6;strokeColor=none;" parent="1" vertex="1">
          <mxGeometry x="374" y="230.5" width="76" height="9" as="geometry" />
        </mxCell>
        <mxCell id="eqcoZZI387RmmcKd29dG-10" value="" style="verticalLabelPosition=bottom;verticalAlign=top;html=1;shape=mxgraph.basic.partConcEllipse;startAngle=0.2007687871753158;endAngle=0.866372146956621;arcWidth=0.29;flipH=1;flipV=1;strokeColor=none;fillColor=#91adc6;" parent="1" vertex="1">
          <mxGeometry x="400" y="110" width="70" height="70" as="geometry" />
        </mxCell>
        <mxCell id="eqcoZZI387RmmcKd29dG-5" value="" style="verticalLabelPosition=bottom;verticalAlign=top;html=1;shape=mxgraph.basic.partConcEllipse;startAngle=0.1748874335846504;endAngle=0;arcWidth=0.2;flipH=1;flipV=1;strokeColor=#FFFFFF;fillColor=#91adc6;" parent="1" vertex="1">
          <mxGeometry x="330" y="140" width="100" height="100" as="geometry" />
        </mxCell>
        <mxCell id="eqcoZZI387RmmcKd29dG-12" value="" style="triangle;whiteSpace=wrap;html=1;rounded=1;strokeColor=none;fillColor=#91ADC6;rotation=60;" parent="1" vertex="1">
          <mxGeometry x="335" y="203" width="20" height="30" as="geometry" />
        </mxCell>
        <mxCell id="eqcoZZI387RmmcKd29dG-13" value="" style="rounded=0;whiteSpace=wrap;html=1;fillColor=#91ADC6;strokeColor=none;" parent="1" vertex="1">
          <mxGeometry x="310" y="230.5" width="71" height="9" as="geometry" />
        </mxCell>
        <mxCell id="eqcoZZI387RmmcKd29dG-14" value="" style="triangle;whiteSpace=wrap;html=1;rounded=1;strokeColor=none;fillColor=#91ADC6;rotation=130;" parent="1" vertex="1">
          <mxGeometry x="441" y="157" width="20" height="30" as="geometry" />
        </mxCell>
        <mxCell id="eqcoZZI387RmmcKd29dG-15" value="Monthly Sprint" style="text;html=1;strokeColor=none;fillColor=none;align=center;verticalAlign=middle;whiteSpace=wrap;rounded=0;fontSize=12;fontStyle=1;fontColor=#4D4D4D;" parent="1" vertex="1">
          <mxGeometry x="350" y="173" width="60" height="30" as="geometry" />
        </mxCell>
        <mxCell id="eqcoZZI387RmmcKd29dG-16" value="Weekly Meeting" style="text;html=1;strokeColor=none;fillColor=none;align=center;verticalAlign=middle;whiteSpace=wrap;rounded=0;fontSize=10;fontStyle=1;fontColor=#4D4D4D;" parent="1" vertex="1">
          <mxGeometry x="405" y="127" width="60" height="30" as="geometry" />
        </mxCell>
        <mxCell id="eqcoZZI387RmmcKd29dG-19" value="" style="triangle;whiteSpace=wrap;html=1;rounded=1;strokeColor=none;fillColor=#91ADC6;rotation=0;" parent="1" vertex="1">
          <mxGeometry x="449" y="220" width="20" height="30" as="geometry" />
        </mxCell>
        <mxCell id="eqcoZZI387RmmcKd29dG-21" value="" style="ellipse;whiteSpace=wrap;html=1;aspect=fixed;strokeColor=none;fillColor=#F9D230;" parent="1" vertex="1">
          <mxGeometry x="130" y="206.25" width="57.5" height="57.5" as="geometry" />
        </mxCell>
        <mxCell id="eqcoZZI387RmmcKd29dG-20" value="" style="shape=image;verticalLabelPosition=bottom;labelBackgroundColor=default;verticalAlign=top;aspect=fixed;imageAspect=0;image=data:image/png,iVBORw0KGgoAAAANSUhEUgAAAboAAAIABAMAAAAGYLQ4AAAAMFBMVEVHcEwAAAAAAAAAAAAAAAAAAAAAAAAAAAAAAAAAAAAAAAAAAAAAAAAAAAAAAAAAAAAlTPQ5AAAAD3RSTlMABg8WKzlMYH2PorPD1+xRcwsUAAARY0lEQVR42u2df2xkVRXH75uZ3bZbYCcsLAqLTAwBf4DbBHWVuHRiMAHUblVWUMA2atzdqNmKP/gh2hISCUTcLgkmxshW9x8EpEUTIBDp7sY/IFHbZTHRmNDF8jMGy+6202k7M89s90fnzXsz7/4459zzXu75e/pePzP3nfM9P+59QjS1c29/7BUfyyoPCZt2wxM+rr1hj23TuI9uf7TElrnLJ7BalxW4VaM+ib1kA+68KRo4v5K3ADfjU9mT5HBtdHD+IvkzN+UT2jCxtxylhPPLtHQ7fVoboIT7EDGcX6J86Gao6fx+OrpBcjh/jgzuvb4FK1L5ywkbdNNEdJttwFFp6XUzVuiItHSPHTgaLZ219NPRaOmrbMFRaGlvyhodgZbutAdHoKV3WaRD19KrbcL588h0W6Kd9SO3fQvUpqxo6UifsvgD8PuMW9HS7RF3xCiFj1vR0uGFWf2eoKSbxaQLLcwazpMwbkNLt1P56HEbWrq78V57BTVdFU9L76GKPy06S/ux7plr/B6LFujQtPSahhsdEBbo0LR0QzxYyluhw9LSDdX1EWGFDslPZ8l+utZ0OL6sI3iTg4KGrjJDoqUvoqvA1dMtbiHR0jvp5HqAbhWJlg6WoIfI6EQfgZbOUimiEN1qAi3dRphHBunCPSd4LX0GVbAL04Vyk2oB+o4bA9fvoqQLyXd4LR1wmQuClK5R4fpLqOnPMVq6sHiB1tKBqsMYMd2GRjrgxZOhbNKH6MKlRth4G1AMNUFMF274wmrpdkKnEkG3DldLr6EcjgnTCVwtfWb9lY/Q0+VCWroX8IZr6y+8j54OV0tvpOyCRtGhauktlG3CKLqwlgYc0OmjHGuKpMPU0gGZWbBBF+5qw2npwLoQVug68LT0IKFUaUInQuPKYFlm/bKoWqLD09Ic6PC0NAc6cTmWlmZBl8XS0izowlq6lCY6LC3Ngw5LSzOhQ9LSTOiQtDQXujYULc2FDkdLs6ELa+l8iuhQtDQfugsQtDQfuvA+pKEU0WFoaUZ0YS09kCK68FakUpro4LU0Jzp4Lc2KLqyliymiC+93n04T3XnAWpoXHbSWZkYHrKWZ0QFraW50sFqaG50HqqW50cFqaXZ0oFqaHV14b3gpTXSQWpqUrt7dV5p+ClBLk9LJ3Qxw2J2SzpNr0ntwWpr0txuUG1KGq0uT0vVJ+opdUMPupHTdkmEMTEuT0q2VlcdQWpqULjAuOdnig51AWpqULvBPH23lXYG0NCldu7TAuhxm4ygp3XrpxZadAtHSpHQ5+QF6GC1NSifk9RWMlqalm5CfU94CoaVp6QIi5HDLj54LoaVp6foUniQILU1LF9gfXWn92bCW7mJO16niJwC0NC1dsE8wphD79Q40pKXLKm35CW0cHeNNF9zLGHe/840PYSGm26WirsJaepg3XbdSgL7QVEsT03UqnUyQMdXSxHTrlVaaZ6qliem8GaUOiKmWJqZrDNFxk/mGG0ep6brVVpphXZqarkPRTZhpaWq6rKKPbzMadqemC8mrP8V8PjTsfpAzXbfiYZbtJnKMnC7833Ypaul+xnReqC9ebq1YQoewTDKmC7dW/bda4nnj+iGPnm5N+JC7hZaLc4N+T4GeLhNxmn/l1hZ/cHaDlq5ypotYmr7vv9BCgzRqadZ0HdFnMD79haZauuHXznOm85q93uW/936zIKOlC5zpWr5p4p2/Pvfos4899lzAnk8SXc7wTH7edKYvM2NO15ZqOsM3fnGna0s1XX4wzXRmL0JhTye+lmq67FSa6UzeJZgAOoOQngS67Hia6fSDXiLoxCdTTSc+l2o6cXOq6cRNqabLX5dmOiEunUoznZf7RYrphBDXTKWZTmR3zKSYTojM9udTTCeEOGf74zPppRN5IS7+8rbb71u2XwVtNPF0J1yoiK+1J5dOODpH5+gcnaNzdI7O0Tk6R+foHJ2jc3SOztE5Okfn6Bydo3N0aafLbQW0T/Oi8+7yQe3tXk50P/WBrVLkQ/dhH9zm2dBlpuDpZM55o6HbgAAn8+PR0O3CoJPYIU9Cl0WBk3i/MwldBw7dLA+6i3DoFnjQ9eHQ1XjQDeLQxe/1JKHbg0RXdHTodLtSTZfu524LDlyVh888C4euzIOuPdVaJYNDN8KDDsmtdDGhW4MBJ3F8HQ2dN45AN8CFDiMHep1RTexmaLiFAiM6cS1o4aj2tNTZboSV9rPfD2euj+DoHJ2jc3SOztE5Okfn6Bydo3N0rei6HJ2jc3SOztE5Okfn6Bydo3N0js7ROTpH5+ggrSfVdML76Lb7/55aumU7Z/sfUkx3HPCOqRTTCeHdWEgxnYo5Okfn6Bydo3N0unSb/gw1m/nOL/Pc6K6EnD19K8+Lrs0HtZd50UHvUevnRAc+0j7AiW4nMNyDnFZmZgYWbi8rnwm8h+sfvOId7P67ecGLDnTv5EKBGR3kBrVqr2BGB7ln+W52OnNPYlSKXbpynh8d2Mqs9Qp+dGBndPyOY353UWIinQ4d0KbeapElXQ6G7rdMKw97iNfluqu3bt169RV5GrrLIejk/OU52+7/20oJ5tl7v4RPtw4gBTokg3ZH+K1j1Ue+gV152GwMtxS/zDb9ptnf/qyASucZB/ThWLYnWrlbpSqhcsUv+wCuS1kVd/2l76PWoj+27TYDi3EpX5F4sP9ZRKRDtFUPy6mBe5JI9wHpQxaeyieO7qsqGVRXsui8n6gFlt4k0WVUQ021Pzl0WfU4Wh1ICl1GR57XBpJBp6mAYhcnDzrdI7bjTtJmQXeLtq5b7GJPdyWabGVAZ9asfpk3XW7CLOnYzZrONGFsVfi1TvcpzKK9bbrVqA0Xy3TeKOrghGW6z8N0cfMs6Vb7MHaIJR1Yx6yXIR3cS07m+dFlAc+q3M2ODnI+ZKnAjG61D2mHmNHBTtTVuljRAc+x+q+xogM/WLvIiA7+yPdZRnQIL5IosqFrg4eL+PFs0WEcZ18rMqFb7WPYNBM6nNcmVQss6HI+ju1nQXcVEt0iBzpvAomu8TWIVujWYME1vibDBp03iEbXENFt0K3Cg/P/Y53uKkS6Jet0E4h0Qb9iga4dE86fs0zXh0pXK1ilg97l1mgjVuk6cOECIY+ebicyXf1x0up02Tselbe95AszsDSV6dqUCsj7yBdmYGmq0uXUquP9xB5z2WvmtenUnpqIK06h09VNXivSKVYM5kmqRc2rR4p0io2NI6ELdBPQVXTpFCXiUOgCewjoVp52NTrVUlYXVUElaK/q0Z1hko4ct07t//jp7RqPuxqd4lNTgosH80rPfEGLTlFFHYZL7YaEyM0oP++ou3qHwUrQy6U8+R1WR7XoFD1eqK5/pi7dk8sSVfqXLxPQVcHyg5Ml9AtUHzzMlTkP9thNq367Q/he5RhYqa+oWpI5gh8R9kFFuznltt88fjQfgBKZKxdar/bIYyqxLiCRWdaQA/3YKroS6h8Y52vyQnUMOwMqA+V2QbXao+LRELPXWUMNfspe0hkMLGNXHg7DzPQ1DoBdJvdX2FWjYRin0rgEvHGpP+tFrviF6mF6lcxevZrhCHK1tgCiVEqaevAIcaVdr047pDmFVSKmW6sDtxDVd5dxbYvEdFpVhzHtxnuelk7HZVbz2qKin5ZOx2VON4lLM3JOk45Oq5TZbNfuZjkxQUenMwww17Q9PSGlAujodFRm8/3k8SWWMimdxjlyZRMfVSGl0wgIw0YLPU9Jpz7EvtTyerElll5KOvVq38GW11svoeHo6IwTO9VUc4yQTj3czRqq8ncJ6dSLKr2GV5wlpFPOf0qm31eJkE65/RN78M2F8dGSjE41u1uIveJofEAho1Otso8Z69YaIZ1i664Se9hbfMOkQEenKFWmAerGRTo606a0RnreT0enJsTmYuuOEtn5EB2dWt0h9hQ7meOBR+joDDvujUU/maWwj4wuC5bYLZvUPqlJMjolEb0I44HfJaNT6knvh5HkR8joVFKEWuyh0HLS4BgZnUq971jcxSS7SbMs6WLPbO2WDZpUdArpXTnuWrIbNkpkdGsAf7sN0lGTI11cVj7Kjq4TTod1yC9xKroz4ITYYMLpoprlGrqAK10ZpB/Bla6FjM75yadrXhH7SAromr4yyJviSKc6NNzs3SydSq6XVzSvrATqA+bFpyBdzTrdwkqkrhZMxbg/HwyN1lV0ue63OWRc8y0F6RDfJ9gu+f+0t2xOqo0JzgW/DMQXt8nl5rP1Ous1rRJt4GpblKqI2HRHAx8s6pRoAzn+Rll5Z2hya+rdwKM1p9qxC11tbbC8abniNxlUyY1p7Lgq3ZmNXx2SZaT+n5GgTC6ZNacng3FoDjEkyGc+uWaOQHWeZyzoqcuIdFL68ESvvCc6jVXeVjoc/BNMsSL1zJx40OpekDikldid/uOsWiURuTt5MoBvjlpN6uM8/Q19tRE8OqlqyCkXNBWRxqqfQlZsKJ8dw6OTWVenn4zLwmlsRv3oknzDd4roVmSq46dHFuv2+pxKYy9QhquG7lpAo5OZxlmpN5wfSmPVX4KxFJpwGkajkyk9lKPqzQfUE7uVq7UrTQ3iJnilqI+fSGM1DqUshRxtxWrzdTZSmBzS3P91LCwiBrDoZMYCjkSmu8fTWJ1tl4fDB5HiLU3JBCgiQL6mmtjVBe+NQTeK5jUlpNi+Jku5qPVq7oGIatWYRbEy0qRCNKd1+kUxQr8tYNFJPDpDBiWiZrJuQr67hBzOB3S7PS2Ez07FpjxevbYhRckZHdd4MjdsnMfeba0q1ljB7DGhm42Os5WCrYAX+hOTIw0nReSD579uqfYQ7tJsNqAbbubN7kah2yXpB+oraQZHS/c2E7jVXishISIYbTANCFGTSUsYHYWzNAY5vHFduIUWfaNFhF8vNkUraff9IhtALdq11Vvpi+1RCn69bsxbOd0lcmjumSK10wyflJr7ubHLbNrSfPFH119hYAVVHd14mE72ToOAUNRsR8vaEdWyWLAFldlhIsSqBr0j6bqG0jRGfQLk3Wh29PK85gSPhk+WTGnqspNrTN8QcVRz+krawj2XGckEaJP5G3yHAXMpqYQm9l0yJz9/ycMA9y6CJsLx31+ohBOdAJ37AMStKyZzLqoBVa5iaxbgWno0hHe2zamleFWR+zHUrSd1WlCGTrN1q6OyA+7FEKGicw7+pROGs0IG7jo0E+ZtBr9JP5jiN4nlJ6XPKPRNxvRmcsztVe1ZLtUujPyD5+M9dsfXZg/wTcqWHrxa5CimB/xuhprmECq4fj+pWID9Zq9OF8/cmk3zvQfZrWC8gFjiSz1lVyK7lfcRwLXY8nwdrlpZTUDXaqboWsgbFfSm4eDjwWn7BKBrGdKaOTKzmE0jq+Bi7qv4kkGqLBqIe2BqPSz4vAlsuvjmce5OGL6aIJcrVZk9I5kbfj2F8oS3WV6YJ5eQEJmrP7PV0CK2u0zYXpiohus1K3bhkAP6Mct0uG+J67dNdyEi3IJtONQ0aL91OsT3hsadl0ph56HRzQkGtie1PsVwDEWxTGXDMkjvtB1hQaexqUfGlvI86HCK0gcFE8MICngT66qG0eud5gInvL5URnK8H+8QHzj4H4/PU4fx4x0QrKwnlbHudCIEKliGecEJ77LUKcwAHmCfeYAdHeBY6OuCoUGNb1W7ONLlgBzLbsHSzkfqxTCxQYh1WeRKB7E2dwu2Zj5l8YZgbLeYTjgUONN5ZiMstX7B2swevQcFczPpxv5FsLcPasO9KRJgn9XNDApJoBM36zXrukQy7Ls6sSApcEJ8Rx2uKJJjN6V1WZ4wteHCNwsiWXapQlh/SiTOVsn2ZGv3iASa920puLd7RTLtkvjZ29pDIrEWOxv6QlEk2bKtZkP/9XWRdMvuiJ5yrD3zRZECy4uP398YHmov/rAg0mMXb7vv8VeWF+n//v37e6/PC+Uuz/8BBJ7Eyk6gu7kAAAAASUVORK5CYII=;" parent="1" vertex="1">
          <mxGeometry x="141.49" y="215" width="34.53" height="40" as="geometry" />
        </mxCell>
        <mxCell id="eqcoZZI387RmmcKd29dG-23" value="" style="shape=image;verticalLabelPosition=bottom;labelBackgroundColor=default;verticalAlign=top;aspect=fixed;imageAspect=0;image=data:image/png,iVBORw0KGgoAAAANSUhEUgAAAbgAAAIABAMAAAAClWQFAAAALVBMVEVHcEwAAAAAAAAAAAAAAAAAAAAAAAAAAAAAAAAAAAAAAAAAAAAAAAAAAAAAAACttl6nAAAADnRSTlMA8yK2yDWwLnpjD5NO3U23DCQAAA13SURBVHja7d3ti1xXHQfwk9md7OzsbEjzQuoDw1pF8sIOgahvCkuU9oVBly1FSW27rChaCC6rUkoVlwGjqCnDSpWQ1Aw3UEvFZNlClbTEYaxvYonD+oCxaR0yyWSTfTp/g9uNNc45594959xzfud3L7/f2+w8fHKfvudxGEtb5cdPfrHKPdXWpYiFq1//0Bvsbm0E0xVOcO+1Fsh2sMsBajkErfwLDlKrIU7JBgcq+ENXaEHZ4K86QBvni8DXWwPQxjdhcX/koDUNaXsZ1sZvA9oqwDbem4C74FrQOH4ADPcguI1vRXk9Kd+ro0C4ZghcH8Y2xoPULAiuFQa3AWHbywNVHQA3Fwp3J7dXHEx8boXDeY/PozxgtT3jOiFxtzw3UXnQ8hufL4TFHcjr7cR7fK7wwHXNI24p/mPvc1hh4nNMOnnnl26v9ITOp0PAZ+XGW64/pxEiPp9TfdwX3H9OI0Tvs+pDv8lgcb7is+oJ/ggDxvmKz2NQvfiNAPG5Jn3QzQl4nKf43IJqHDfg43MBrIG1yyDLvIePLIENTzTg4/MSWPOqAR+fm2DjSg34+DwF1qWxG64feb+f1IPh3MfnElzrY1ec88kb48IH3IDC9QDicw2ui3QQtzbnPz434NrEAm7If3yehOtDFHDlKe/xGXC4TMApOxSdxuciQMCLw5WrnuNzCXAUV8Sxj3qOz0OAIy4SbsRzfN4z+NbXQXFsxm98XgKcAinjKn7j8wzgUJmMUw2dOYzPQoMnAsaNeo3Pgx+4xYBxqjDtLj63ACeFqHBjPuPzJOCsYxWO+YzPXcDRaSXOZ3yuQjXm4nCq+OzqBAJ8hqtxPuNzeFy56y0+h8d5jM+D77k/BM5ffEaAU8VnN9PWMeC8xWcMOG/xGQXOV3xGgfMVn3HgnMbnwjNX/nx6p3DgVDPr7OLz+R9/Nm4kIhhuyM209ee+mjDMEgznJD5XXk0cQwqGcxGfn6hypLjU8bl8drfRv3C4tPFZYyFxQFwhVXzWWSQdEJcqPmut2QyJSxOftZb+hcSliM8/4Ohxqvh8ROd9Sxw/zjY+F7pZwFnG5ybPAs4uPmuv/AuM22sRn1WpFCWOWcTnb/Os4Mzjc5FnBmcenzvZwSnj83RSE45nCKeKzzfcHLjwOMP4bHDFYcAVjeJzLVs41YkWO++mXMWDa+pkD5P4PMyx4ja0ju/dtUUxf9pChOtofeOSdnw2XEfsF7egN6Gnpbvqs4YJJ0yii/sz7fg8hQm3T7PjblIvPsc2wP9+/OLdgsSNa06leUkvPqvPyt7r9/7TIHFDmo1sVXze1Dwr7///8wESJ7SZV2L/UCs+V3ZfAA6JE57P6/FdPorkIe05qFrd/mkWDFfUniy+oBGfFQ/7d1k4XFm7204jPpcVnUlRQJww/zFpzvHu8Vl+EPSkyxIU19LuHVHF56NJiYCr9iQExTX1p5o0d+t9bmhENFDcgn7/wa7xuaoRrkFxe7hWo0cnPld0sjUoTozEkcHfCvFZmtsxGxo3ajLKkRyfazrriEFx5d1Sh358bugMn4PixKybuFovOT53dTrdYXFNkwUE5xLi84hWUx0WVzM5L5Pis/ik+BAC3LDRSsCE+DysNRQEi6sYzYdNiM9C+IrpbILFlfW6tXaPzx2t1hMsTs4dy0YH+n/xuKXVqAfG1czmYjTjep+ntO66wDg5VH2OGcbnWflrx+U4YJy8tKXXtojPBb0rFxinWOi4YRqf29LFuIkEp3h2fdAwPq9Lp+s6EpzqULxrFp83pB7QI0hwyk2V3zaLz5EYUOpIcOpdlj48H/v3F1Trdffo9TSB49RbRm/9yCA+z4rjRRNYcHGzKz5wSvsWtF93pA8cFz+Q3b/4ZqT1v7EuBJ0eHlziVub/OH7xJ2JNyVOKanoNenjcCE9bN4RTFREu/U/kiLibiHBj6XEzei2LADj9ibsZxKX+zS3UuEI1xzhV0yA/uJE841IeOuS4dFcdcly6n5PBjivP5Rinu+Ytmzj2aJ5xKU5M/LgUv3SUAZz9bw1nAceeyjOOnc0zjv08zzi7Y5cVHPtynnHslW6OcWzkDznGMXZwKsc4Vr48lV/cdj33WjW/uO3D9+TJT1XzirsrfObJK/fqVzt1+vTpbi5wMTWXZ9wk4QhHOMIRjnCEIxzhCEc4whGOcIQjHOEIRzjCEY5whCMc4QhHOMIRjnCEIxzhCEc4whGOcIQjHOEIRzjCEY5whCMc4Qgn1fmTXzvsoz7zfBQc9wT3VjfbgXEvc4/Vnw+KK1Z94pJ/5tc7rsP9Vj0grujZlnjofOPO+cbx+XC4lnfckWC4gndb0q+aecaV/OP6wXB7/OMSfoPIM64GgFsMhesA4JZD4RoAuNk84w4RzgOumedrbgYAVw+FWwLATYfCDfm39YIllIp/3J1wrYKud9yNcLiZgPcT77gx37Z+yD6USc+4ayFxe/3aEn9E0H+/pd8E9oZ+195tD7jCnEfbIywsjhVOeDsnf8dC47Z5z3qp75iN8tzO8xAW4QhHOMIRjnCEIxzhCEc4whGOcIQjHOEIRzjCEY5whCMc4QhHOMIRjnCEIxzhCEc4whGOcITLNu787x92UQ+dQoh7zNnM2LcjbLiPOZz3+xFkOLereZZx4TpOcauocK43nljGhHO98cQaJlzL9VqCCA/O/cYTdTw49yvMruPBud94YhMPruYct4EH13GO6+PBuV88t5VnXI9wILhmnk/LmTzfLZec49bw4NxvPLGOB+d+44lDiFoFXde4aUS4mYD3E+841/vRXUPVhzLn9hE+gQrntkV3AFm/pcuQshohwxXcdaNstdF1p5dfcGR7Z5qhw23zHnBRhgMFNIRFOMIRjnCEIxzhCEc4whGOcIQjHOEIRzjCEQ497hbhCEc4whGOcIQjHOEIRzjCEY5whCMc4QhHOMIRjnCEIxzhCEc47LjrmcDdzhduauBbWv787zpSXNcOJ74MZ4mHQBM3eMA3cdrK4sWjiRu8VO/gxBXFe7omrmW/BBiuRgdxK7q4hvVmEIAl/E77rC6uM/i6CZQ4YQOkZV3cwuDrFlHipC+pidtnv2ECXDXEjQ80ceNZeIoL+0JEujjhWkX5LChKW+Bo4kY5/tvlmLRlhSZuRFjC3UaIq0lb4GjihNi2/YDEV8LOAjf0ccJmGQjTZUH+/9fFCdtJ9CJ0OHH7o2V93JL8UmTVkW8Lurhh4aW30LV3qsI3ZPq4UY78vBxSbF6kiyun2bIqQPbaObV0cdLeQsjadNKGYysmOPF6RdYykLbkqpvgxsVXr2GyyXtjRya4Ua76v0F74DaYCa6cbjM10N6T93sftXGKTUePYo2VOx0oRrgleTs1LG2DB+WdpybMcKXUe475qlLc/oP6OCnfvNcix6CrdLn6kjPAKTegvj9CafvvndwAN6zcf3I6sO1gVbW5YmSKU2/Xv3Up5MErnlB+qU1miovbgXrr6SvPPhCivnT5tZhd+mbNceM8I/V+e8wEV8gKbpOZ4zxsHu6nlm1we7Nh6zMbXLmbCdwBK5yHX8nwUdN2uGKWbiemOA+/AeK+6ra4Ufy2O8wWl4GnwbI9Dv2h22D2OPSHrp4GV8FtW2NpcOxR1Lh2OlxhCrHtKkuHY7/Fa7sZpcUhfpLXWWoc2hPzKkuPw/qwu8Nc4NgnUDbjJtzg2FMIO07azBGO/QWdbZE5w7GzyGxnmEMc+xOq663NnOLUHdmBmgLzzDGOFV9FYrukNZhshmPsGIbH+b+m9UbKbxqPRBz7VljZ1tNvxX+5hZS47TD2+MlvHH7YYwm3jnv/cPj4T9+M9Hsi+wxfCZN0jxi8dBCHce6y0Fc6a/DSpcFHIULcqD1u3+BLI3y4UmzPnSluHh9uLLE9ajJauogPl+IbDtkfdKBaSujeMjvoK/hwQo/NhP3linCpbWvwGxrNv0nosMVRXfsnsTCNEl9EEQKKWbSv2p/SIZ4EZovb5pDfLoWbpdlijcbgi9GtaWym+X4zaQ47QFXtGwVS/sKWLkvcPn3Js4KWUV9yRr+dLvf7I1teJTzCDdtk4noBXO3VSsJwvk5NYj4vz8XODrK61+Jajip2He5PecliarCO8ZSnlfQGB/DgGuJ3M02HI1I/J5p8KY3g9lOf1/xvSKOXzf1AmpzQm8Zhk9fomHcUjCfPMQpW5Unpi5n3Xylmc72BASfPw7IJGF2O8cQc407OqBn5bVaD3zErinHbFYv3US0X2AisUy4cszmflMtYVoOemb9R2Vat3qqhnPxwKRit8IJyFNWuUzVmeVX/9a+EeAJ88sWu+vssWr1fwlqI+6Arfv6HbZ9qg2egbLv6h7OAa9tewRmw2e+W0MGPW7HGldDbeilSRQs7Lk2X41Bebyc7j84p3LZ0TcwLuHH1dKmni9mWdvDpJcy4xbSBdRKvLX0v+BhenIO2ZROrzUVHarGK0+Zmq6OP5/Nugrldd9VRE38EYU5xN78C38q4vsPhQmwLUnuLzGF9FxfuZ2671h7LsY2x76OhbZ1x3y36CpIGwmqbeSgca8c+HzE/dSz4wVs9w7xV+XLQ5/k/T3kekTj/4tf/GgL274ee/54TwH8A22BnzJzmKKgAAAAASUVORK5CYII=;" parent="1" vertex="1">
          <mxGeometry x="261.56" y="215" width="34.37" height="40" as="geometry" />
        </mxCell>
        <mxCell id="eqcoZZI387RmmcKd29dG-25" value="" style="rounded=0;whiteSpace=wrap;html=1;fillColor=#91ADC6;strokeColor=none;" parent="1" vertex="1">
          <mxGeometry x="190" y="230.5" width="42" height="9" as="geometry" />
        </mxCell>
        <mxCell id="eqcoZZI387RmmcKd29dG-26" value="" style="triangle;whiteSpace=wrap;html=1;rounded=1;strokeColor=none;fillColor=#91ADC6;rotation=0;" parent="1" vertex="1">
          <mxGeometry x="231" y="220" width="20" height="30" as="geometry" />
        </mxCell>
        <mxCell id="eqcoZZI387RmmcKd29dG-27" value="" style="ellipse;whiteSpace=wrap;html=1;aspect=fixed;strokeColor=none;fillColor=#F9D230;" parent="1" vertex="1">
          <mxGeometry x="468" y="206.25" width="57.5" height="57.5" as="geometry" />
        </mxCell>
        <mxCell id="eqcoZZI387RmmcKd29dG-29" value="" style="shape=image;verticalLabelPosition=bottom;labelBackgroundColor=default;verticalAlign=top;aspect=fixed;imageAspect=0;image=data:image/png,iVBORw0KGgoAAAANSUhEUgAAAbwAAAIABAMAAAALfsR/AAAAAXNSR0IArs4c6QAAAARnQU1BAACxjwv8YQUAAAAYUExURQAAAAAAAAAAAAAAAAAAAAAAAAAAAAAAAFY3HCoAAAAHdFJOUwAbP3Omy+w6ybkhAAAUhklEQVR42u2dz3cbNw7H55fsq9o40VVtnOgqN7ueq52mnaub7j5dnbj7dLUtW/z39xArmuGAJABifmBe5hY/R56PQAJfgCCZJH0+bzfmf78lU30ujTHG3E2U7rX59vw1SbrMHJ7lFPHK73i7CdIV5visp4dX1fCeJkc3M/Vnat4l3TTw9vNp4b0xzefLtIy3tfCmFRxs4xnzOCXjmfYzIfOtALzHSRtvQuZbgHhTMV/bbU7KfG9guomYz2W8iZhv5qKbhvk2TjwzAeVZNIA+TU15lnWeXfOfz+rp8oa51ta/ryalx3bQD6ajx9aNgtkEqi6zdiBYTSg2VO0wnk2nKpFDlmqY72YyjuUwz7KpOJeG3NzB0MuJOJajk2yY72EaimXnGLN6lUvmEij5JELfidNI5RRGZ+kMAMUERmfmSe02+kfniUd8vdEvzEqPhVL1ozP1apOV9tE58yrLXLvvXPlrRpXyteit33m80a0788DkynRnRYuQayxVh4Yq5DpmmkNDGnT8qebJV4RtUxudt4qn3kM4MD4qnnrrsOTe6516e8xXsFQ79R4xA/hG7dS7wkR+ZZOvRK1RbrXKTtyLr5Qu1Ga4bGemNOcrcO+dKQ3sC+So2+j0Ldiu91Knb9kgCw0nKnVLim0OyFXqFvRbpyqbJGboRLXS6DoX6MXXlUbXeXSI94HfPNG4Cl2hZ1Susd6C94c13aJRcRK0t5rIkBO0SKlPVM+c7vDnX39xuk41CfupQ5K92hhjni4cv3uvBW8BW+Ts5YfXsKXVLIPB8ykP/HSnD28JBsMn0MuqwdtAceG1Y8FLX8a3hZK4jaNZYKMu44MMUrhaxCttsgWcTivX/pNSWy0wgyiaG4n2ELcSVZYDoSx37o5aaFNlBSBE7H1SN4BsUYd3C9jItuuJtmrLDLBRaeHtgN9WggfZo7LwngBb3+jFs3dgPnuHspJ8aA2UJ+zIkGvLiDB4Ztp4iq23AIK3e+5NAm/j9JzZFPDccW8SeCvnlvVMr2tZArHQjnGT8Jx2xrCeFl7qCnvTwLN8y04x3gmEN3OkezW8W214tRSnsc+0vt9ZnaSGM7iF4ygMdQkR/MI18zU2q6tLZwvYWZzBHOqKES5f+O7lp5/DflYHnrV6eW6MMeajS8Ipwcuci7PZh399sIu16sq4KWlNS10RnramVarr/CCtaW3U4ZHWtLbq2pJKgrdI9a3Orgi+XuHa+oIgRHJ9HY+nhCSg0NfXQmnFOdHXlURpxVno6ynLCN5wpa8jMCX0c1YKO/0JPagbhXvAKvSISzVuQ8H3oGb6REvdHYYiQ6Gx0X+GfukTjYe24HcnLPRF9Uan/xybXGg6Rxa9J3ajcvNshXSdqc6tzyXSY+Q6T43A7nArdO6dnSGtstC58xm7u7TUGBfwe2IrlXGh7vDvcd+CroP0cPvyc613F5yiZBl+h/TIngLlWxYa8wVLdV7FR/8x1yMeML+k7ZRAjG/J9J5AukBUywq9l75gzttZ6D2AFHNOUKn4BMtt+N03OhWnZZrnqOAxft+yjAn94/ctN6EvQOHB22nwAEDdl0BvQsbZqpVkCeIAQNWepeFb1v5sSOOx21noJrNThQftgGMTxltpPlU8NwS8Z3VXZZXBy2pWiu9fz8NXlNZb47WZr3IcoQC7Fm23YBYmfI1ZofaiunRjwpfQpWovMW1eg+yaWKXSK4Sta5D/Qo1gPQn7yrEL2Ot/1JiveTepRy/rNF+JcJt6zZcb9M2yGs1XEt5Zn/kKypXx+sxXkd5Ym/leG5LWKoyuW0w3qIju0t5zVTMPkecUCHU6VsFyRZ2rY6/nbnFyzGm+cZcEc8Zd8ZWe2DBjXMZdhBP7sTwLThSr1IS+FWecFWomX8myQ91890rwCMWTQotvKXmVy8roWOoreXXnQgkedzdepQNvwfSAMx14p0xxPNPhWmZ+B5++/fTp0++/+b6WUQcG7zbtn/84KK+Pc+ecHXVK5Nlkn/67nvisXR53rQPPdhGvrBM6Pzo856g1p3Ov6LvW6bGf4TRx3OUIOLNJS2N8fKmWdH0LNXNklTFevlxL3+oGmET5xsDPddvhjry7DNixnm+N6zn8jpoNwu29sK+M+9kvbS038mMQW/H5zPiep7n1v0aYrKdvf79oa+p7BN1hrgFR/e2HkUTAtKp5QWsWhehe3EvLIaWVMeZiNHTfR1VT+p+b8LNs7ANvTOHr0dAd4nFDlWHozNO8pnWsT7keC93BfPUA/c6gnq9tpVqacfAd6V5ShJq8QtIZs545P2RYvhrdYVwZ+vNsn3+Sm1HwpQ0tObdUGee5tdzvkHwptDBeReFdWcFzQD6L7iUil/5x+OnDJ59915aIGY6vleWAr9aMAd8C9Vs34Bz8jOsR0L0MzlM33ff6Q3rpktgJMDiH4AMy1HnbLTRMt/TWJurJ7KkZmA+ge7YzU0s7zwO1l1pUL8ywfFB1YZe0Ylbt+dv+iPfQbz3YBalB+MDayY371eyDxJ0u9r6V87sqh33TfW8oMshXSytX2LN7sfvly0C//qVdTAoMrMxde0m3g/HBdDvPoHNNmzOH83XO4I+D0R39YitoXSAKM63a6NkwfEG6llf3lBSs3RyNGu4gfGE6a3PJfolbcWmvKg3Ah6BrDrl9YD3rveNqKTff54Hp6ibZB1frfA1XPfPh6Gq+002X/gQMz6ewa+2QD0v3PaA9O+fdv435Z9mK4O0+plf98aHpDm9Vozv/738u7Bn3ZA9PqJG6Nz4CXZJkfxjz97yJ07qz7Ys1PME+pp74SHTWU1jGWTUXYl97V/Z64YuhOwy/L3ZgPNjz3JiGsXvni6LLrWXzvLVUmX348Iv7/3fOF1LR/ufUCmun1A/omC+O7hgGbyxVg+6C6JQvku6YAD7YGVMyAr5sG0eX2IqZc21UZ3zRdIlzdYvSYNURXzxdaluP17HbCR9Md0f6CBuP2dKay/MJ0NVe68W1cO+uyR1ru+wnF6Br36XIvnlImA+OCES69k2Y/HujYD7uUTalBF37HtOIW79yZ+sI/SlE6NoXr8bc2ZZ7ViaITyVCV3OUhxL7NmKzHuQOWC2uuQwdcPFqFdNZDPFx2stXMnTAxatl1KwB+BhbO1IhOuDi1chrvwA++ih4I0RXg5m37Mnr3mzz0Q9a2gjRAfkP5fZBHB/ZuRSOVf0YB9wOFffRXxlzGJRi4qdqhYHo6y7fR6UwjhVypjjftEZQ7GWl76KVy0Iu+di2hnfkVbNgzwhpHMBr27zFNcBUUXoDbvElHYUyC20b4cTPHeCV6Z/naj6/YXm7aD7o8vUI2eJsrSeM89zd9nbBx3sA8Kiy5VWoV5IpN9kvlLfxah0DV9wPi3Aumb+xO7IW0ZjZN2J0+IH+xvspexpf0XaTG8NTZZ6tZBThGej23pP8QdtUM8PDy7aBhnqG3IRQnyl8J62/X/HcOVjYeqYLz7rcfIb69kh8J3ZNq+BNZJDuab6hCs+sOZ5BvqclC+95bsfUeSRd008sqVFhnjj45nTX8m3256w8zfkSKTE2NOTmo++LYzjz/byZaT3E0H2bIiua8Jy1p0YcX9N555xQ5XMAOU14VoCOA10ysnGgaa59yUhCwU3938NTRRGe8JcBBlTOKWssAVR6xcWM8omOoZxHFOQ3/m3BwefS/820nQUyKjyE5B6ObxZnvMvQfyWcbOcOI6/45YkqJkN7H0zLMrzw9IiAMzZf4durxymsXHtkFvpFrhIpvoptPAwd/oxB//dwxi1PFFzjIf8iUniGRvE7Ll/FS1+w4wUpPFchtcvly1mVLfRswAlPxG+9Y5aXWpEZcUIiwVevMFkIJv6/5wWwnF45yAldHijhiVJvlzy+klpUpukIxKsjtXfJKi/lROMRVS5i4JXIb7dklZdK0mpxRtTwDeG5I8lNVH4SLL9klLQazDC9GVhQeOKVKa+8tMKnsYz8OWgcQs2JVX7J0MZjfXzZ3t3PEm6Ja3Nw6AVWSOPxanOB9y9JgolTfslwxuNWVr2jLydW6+mT/2i+dSLuuGzhuebImhjXfTTfjl5YwVTUfJKSWg3llZdeh9+VJxpCFjphFLAY5Zfz9rGxIpIvNL9IxUKO6D2Mkl/n5MIKepnFCUEs9QqUl0TTrZDwLEliXqL8wi6sYJdHdgy5ieNjbp0/j+40cehK1hUfkeWlLj4JNlM4m+hwRImOc3CSzVh+SsgfiHop0EWyooKUN2fHGGxsaHw0p/33MpovZgEqJE/IclNSSUUvH4bEJUNuyulgrjrHC883sfs5YrIYbm6FF56b+K+Mn4NGNyaE0vKcUoTogE+Yzm56Oo3dShVT/4luCgoUJe4bxoy6RYZlhuiWNb9z2TWX3tY983VAlzdXgLdGjo/a3ZPGBZSwQNgnUa22keE5Vg6E38CyXux3R+KTp7PHz77VMyQ48gPi8VJAigdm/zOwLBzF9wot/d+LJFJ+37YDNkNFRR10WvpOLM33uOEHqOekD75e6MwVuNmrA77rrko0Prr9HN6UsYviC1tGtoDoDKFfgDNA41IHFJ88HRhkvvXOgGLjTp7voqvitiPIHEI4GIy/Rv05X3lJqmwU+HNHgZD383V+4xMrGwUGyzogNuQnw34tWTZC03XhqB3lpUyebqBABDqzjXgYwr15P4HWmCFEhNxaAZ0vjg4fZORlYIbge5JPwD53txaCKL90nV5+JcX+Tvni6Kh6q+znDYRKHxlZLcvz+XZjdzAydvRg1cHsl5jXFSOEyhfF3Xxr8agzRNHfdY7FxQB0wstt/Sq+ZUdTlsEnr9fRy6U9qPouspEoZy6acXZQelhHOru4ekFF31fKqXTIS1XcgDekXShxyblkooF7ZuTde7wqHPZZyTpz6+MeJZ0w50Aw+DgoNl9r4U2UTgqPKzVyIUHmOshLCo/5Xov20pSofBXD4/FVrF3r+ORDDo+TpAEnnzGSLE/qKIfHSbFnrI3dhMRfEI+RvpcCGtZbtpHEI/Ol0IfMBelk8ajpbR7vogIl4Qi8+I5E8Cjah2i6p1IC75fo8gT/QBN/6UEEbxlbnnAciImfwK7SgwxebHnCcYn3bYzjNc/LRAovsrughPHQ34+zL0AKL6q7IHW5O+TwdvcFiOHFpO/Oc9hwjeme5FwOL4LPGUEfI+kk8eBUC5PeOuUG+7iki0Qej1tr9pyTvOTRXSdd4DH5Ttx4t3F0wni8IlXpxguFhlC5ThiPU2JMfUp4HldslcZjFIgLH95VXKlcHM/bWUhPrB6pyfld0i0eeenJm4U+E9PXXdI1HpHPf0q9e1yjVHwXeLTugoUfz5XT4voCusCjLWvXfneDz2mRf6ITPApfPSy8R4cG7B/oBo/QUlIrcD6B8uUGm5xDw78jPHz6XgsLD0e8yh8a0M6rKzw0Xy12rY94H7wrYXjX3Bkesrsgr3Mc8dZbT2gg9AV0h4frLljUTVvDK92hgSL7OsRDpe9V3YfU8GbO0EAS7V3iIboLskbqWsPLXDktLeXqFC+c3jaNVMNrmpXwiX3iBd+mOcXqeAvQ31LLAR3jwYdTHcdSc/rU8XJodQcc7R+T4fD8niBvhrc6XrL1/jqy1Ng5npdv0RQnDbxVKzQwCqnd4/m2zln+o4HXCg2cMn8PeO7yRGYlBg281AoNrEWaPvCcGvHE8o4NvLppb7kdwL3ghRcXv02vJl4jNDAXSHvBc2SfP9m+polX9yQ/MZe3+8GD+fZ2QayJVy+hbZmL9z3hhdoyHiG8Vfyuvr7wAk01VxBeEb8zrDc8P98cwkvj2576w/M1tO0SCM+zdIRtyusRz9OOeAvjnUS3VPaJ5663L2G8LLohtlc8F99zAuO5VlfwvXT94jkauR9deKvYZvSe8eB0+8qFV8RuJegbD+Sbu/DS2I0SveMB6e133d/CA0IDbRtP/3htvls33knkJqUB8Frp+9KNl0VuoRsCz0rfj1XoNp7VpkveADkInutiYABvEbd9dRi8Bt/ah5dH0Q2FVy9PJD68hNWbPTReLb199OOtmDsjhsU78l358YoYuuHwDultffUOwnvxncxDRYbDe+Fbh/DyCLoh8ZLsT/NPI7cB8ZL8T/MP98CUIfFaz0nsxtkfeD/wfuD9wPuB9wPvB94PPC/e3Vjxcpl963fjxMultuXfjREvlzt14G58eLnkoQp3Y8OzVhMj8ST4JPFaV7pQn4WR5hPEa60Ekz/h1EjzyeG16OgHZ82MNJ8YXnsV/ynSM0nwSeEBPRj0U91SI80nhAd1mDBu7Cyl+WTwwP4gzrFZRphPBE/u6NdSmE8CD+7tYn0e3OZ3NyQeTMc8lzGT5YvHE6WT5ovGE6YT5ovFg+k+Jsk4+CLxOqAT5YvDg18k7gBoUb4ovI7oBPli8NKu6OT4IvA6pBPj4+N1SifFx8brmE6Ij4vXOZ0MHxOvBzoRPh4eTPc1ScbGx8LriU6Aj4OXSied3fEx8Hqki+aj4/VKF8tHxuuZLpKPjNc3XRwfFa80UkWxXviIeEPQxfDR8Iahi+Aj4V0ORMfno+DBdPNkxHwEvCHpuHx4vGHpmHxovKHpeHxYvPfsUwgG5UPijYGOw4fDezcKOgYfCm8sdHQ+DN546Mh8CLwx0VH5wnjjoiPyBfHGRkfjC+HBdMsk0cEXwBsjHYXPj3c+SjoCnxfvPOJMoXHw+fDORkuH5vPgjZkOy+fGGzcdks+JN3Y6HJ8Lb/x0KD4HngY6DB+MdxZzDtuY+EA8LXRhPgjvVdQpc6PiA/A00YX42ni66AJ8LTxtdH4+G08fnZfPwssjzz8cG5/7ZGM9dB6+Bp5WOjef68ICXXROvhoefNDsRZIo5jsi/a6azsXnf/TQcfg00dH5dNFR+a6TZMJ8+ugofBrp8Hw66bB8WulwfHrpMHya6cJ8uulCfB+TZMJ8+ul8fJ+TZMJ806DrcOPriPmmQwfxTYmuzTctOvvQgKnRNfmmR1fn+5pM8SkmTXc43343Ubq48+018EWcb896/g/kXdWL4WPl5wAAAABJRU5ErkJggg==;" parent="1" vertex="1">
          <mxGeometry x="479.41" y="215" width="34.68" height="40" as="geometry" />
        </mxCell>
        <mxCell id="eqcoZZI387RmmcKd29dG-30" value="Product Backlog" style="text;html=1;strokeColor=none;fillColor=none;align=center;verticalAlign=middle;whiteSpace=wrap;rounded=0;fontSize=12;fontStyle=1;fontColor=#4D4D4D;" parent="1" vertex="1">
          <mxGeometry x="128.75" y="263.75" width="60" height="30" as="geometry" />
        </mxCell>
        <mxCell id="eqcoZZI387RmmcKd29dG-31" value="Sprint Backlog" style="text;html=1;strokeColor=none;fillColor=none;align=center;verticalAlign=middle;whiteSpace=wrap;rounded=0;fontSize=12;fontStyle=1;fontColor=#4D4D4D;" parent="1" vertex="1">
          <mxGeometry x="248.75" y="263.75" width="60" height="30" as="geometry" />
        </mxCell>
        <mxCell id="eqcoZZI387RmmcKd29dG-32" value="Finished work" style="text;html=1;strokeColor=none;fillColor=none;align=center;verticalAlign=middle;whiteSpace=wrap;rounded=0;fontSize=12;fontStyle=1;fontColor=#4D4D4D;" parent="1" vertex="1">
          <mxGeometry x="466.75" y="263.75" width="60" height="30" as="geometry" />
        </mxCell>
      </root>
    </mxGraphModel>
  </diagram>
</mxfile>
